<svg height="24" viewBox="0 0 24 24" width="24" xmlns="http://www.w3.org/2000/svg"><path d="m.539098 2.539097h22.921803v18.921804h-22.921803z" fill="none" stroke="#555753" stroke-width="1.078196"/><g stroke-linecap="round" stroke-linejoin="round"><path d="m2.472426 4.972426h19.055149v14.055149h-19.055149z" fill="#729fcf" stroke="#729fcf" stroke-width=".944851"/><path d="m21.5 5.0000053v12.3124997l-1-.3125-1-.5625-.5625-.4375h-.4375l-1 .5-1 .03125h-1l-.625.46875-1.375.46875-.5.53125h-1.5-1l-1 .4375-1 .5625-1-.34375v-1l1-1 1-.125.4375.03125.1875-.5625.375-.40625 1-.1875.34375-1.40625.65625-1 .6875-1 .3125-1 1-1 1-.4374997.40625-.5625v-1l-.40625-.59375-.4375-.40625-.03125-1-.15625-1z" fill="#555753" fill-rule="evenodd" stroke="#555753"/></g></svg>